<svg xmlns="http://www.w3.org/2000/svg" style="isolation:isolate" viewBox="1062 23 28.41 30" width="28.41" height="30"><path d="M1076.2 53c3.64 0 6.8-1.98 8.5-4.91h5.7V44.8h-4.51c.08-.54.14-1.08.14-1.64v-1.64h4.38v-3.27h-4.38v-1.64c0-.55-.06-1.1-.14-1.64h4.52v-3.27h-5.7a9.8 9.8 0 0 0-2.99-3.21l3.33-3.19-2.31-2.31-4.21 4.07a9.87 9.87 0 0 0-4.63 0l-4.16-4.07-2.3 2.31 3.23 3.19a9.9 9.9 0 0 0-2.97 3.2h-5.7v3.28h4.52a11 11 0 0 0-.14 1.64v1.64H1062v3.27h4.38v1.64c0 .56.06 1.1.14 1.64H1062v3.28h5.7a9.82 9.82 0 0 0 8.5 4.91zm-3.27-18.02h6.55v3.28h-6.55v-3.28zm0 6.55h6.55v3.28h-6.55v-3.28z" fill="#FFF"/></svg>
