<svg viewBox="0 0 24 25" xmlns="http://www.w3.org/2000/svg"><rect width="100%" height="100%" fill="none"/><g class="currentLayer"><g fill="#fff" color="#000" color-interpolation="srgb" color-interpolation-filters="linearrgb" white-space="normal"><path d="M.53 0A.53.53 0 0 0 0 .53v23.81a.53.53 0 0 0 .53.53h18.52a.53.53 0 0 0 .53-.53v-7.19l1.74 1.74c.33.34.9.1.9-.37V13.5a4.49 4.49 0 0 0-2.64-7.65V.53a.53.53 0 0 0-.53-.53H.53zm.53 1.06h17.46v4.8a4.5 4.5 0 0 0-2.65 7.64v5.02c0 .47.57.7.9.37l1.75-1.74v6.66H1.06V1.06zm17.99 5.82c1.9 0 3.44 1.53 3.44 3.44a3.43 3.43 0 1 1-6.88 0c0-1.9 1.53-3.44 3.44-3.44zm2.12 7.4v2.96l-1.75-1.74a.53.53 0 0 0-.74 0l-1.75 1.74v-2.96a4.47 4.47 0 0 0 4.24 0z" style="font-feature-settings:normal;isolation:auto;mix-blend-mode:normal;text-indent:0;text-orientation:mixed;text-transform:none" paint-order="stroke"/><path d="M7.67 2.64a.53.53 0 1 0 0 1.06h4.24a.53.53 0 1 0 0-1.06zM7.14 6.61a.53.53 0 1 0 0 1.06h6.09a.53.53 0 1 0 0-1.06zM3.7 9.26a.53.53 0 1 0 0 1.06h9.53a.53.53 0 1 0 0-1.06zM3.7 11.9a.53.53 0 1 0 0 1.06h9.53a.53.53 0 1 0 0-1.05zM3.7 14.55a.53.53 0 1 0 0 1.06h9.53a.53.53 0 1 0 0-1.06zM3.7 17.2a.53.53 0 1 0 0 1.06h4.77a.53.53 0 1 0 0-1.06zM12.96 21.17a.53.53 0 1 0 0 1.05h2.92a.53.53 0 1 0 0-1.05z" style="font-feature-settings:normal;isolation:auto;mix-blend-mode:normal;text-indent:0;text-orientation:mixed;text-transform:none"/></g></g></svg>
