<svg height="512" width="512" xmlns="http://www.w3.org/2000/svg" xmlns:xlink="http://www.w3.org/1999/xlink"><clipPath id="a"><path d="m0 0h512v512h-512z"/></clipPath><g clip-path="url(#a)" fill="#947eff"><path d="m121.38 311.3v133.52l-65.05-37.56c-17.2-9.93-31.16-34.11-31.16-53.97v-194.59c0-19.86 13.96-44.04 31.16-53.97l84.25-48.65 84.26-48.64c17.2-9.93 45.12-9.93 62.32 0l84.26 48.64 84.25 48.65c17.2 9.93 31.16 34.11 31.16 53.97v194.6c0 19.86-13.96 44.04-31.16 53.97l-84.25 48.65-84.26 48.64c-17.2 9.93-45.12 9.93-62.32 0l-42.66-24.63v-111.1l6.51 3.76 47.9 27.66c10.71 6.18 28.1 6.18 38.82 0l47.9-27.66 47.9-27.65c10.7-6.19 19.4-21.25 19.4-33.63v-110.61c0-12.38-8.7-27.44-19.4-33.63l-47.9-27.65-47.9-27.65c-10.71-6.2-28.1-6.2-38.82 0l-47.9 27.65-47.9 27.65c-10.7 6.19-19.4 21.25-19.4 33.63v110.6z" fill-rule="evenodd"/><path d="m261.8 174.1 31.11 17.97 31.11 17.96c3.2 1.85 5.8 6.35 5.8 10.05v71.84c0 3.7-2.6 8.2-5.8 10.05l-31.1 17.96-31.12 17.96c-3.2 1.85-8.4 1.85-11.6 0l-31.11-17.96-31.11-17.96c-3.2-1.85-5.8-6.35-5.8-10.05v-71.84c0-3.7 2.6-8.2 5.8-10.05l31.1-17.96 31.12-17.96c3.2-1.85 8.4-1.85 11.6 0z"/></g></svg>
