<svg xmlns="http://www.w3.org/2000/svg" style="isolation:isolate" viewBox="1127 23 30.95 30" width="30.95" height="30"><path d="M1142.47 23A15.43 15.43 0 0 0 1127 38.38c0 6.8 4.43 12.56 10.58 14.59.78.14 1.06-.33 1.06-.74l-.02-2.61c-4.3.93-5.22-2.07-5.22-2.07-.7-1.77-1.71-2.25-1.71-2.25-1.4-.95.1-.93.1-.93 1.56.11 2.38 1.59 2.38 1.59 1.38 2.34 3.62 1.66 4.5 1.27.14-1 .54-1.67.98-2.05-3.44-.4-7.05-1.71-7.05-7.6 0-1.68.6-3.05 1.6-4.13a5.5 5.5 0 0 1 .14-4.07s1.3-.4 4.26 1.58a14.8 14.8 0 0 1 7.75 0c2.96-1.98 4.25-1.57 4.25-1.57a5.5 5.5 0 0 1 .16 4.06c.99 1.08 1.59 2.45 1.59 4.13 0 5.9-3.62 7.2-7.07 7.59.56.47 1.05 1.41 1.05 2.85l-.02 4.21c0 .41.28.9 1.07.74a15.4 15.4 0 0 0 10.57-14.6c0-8.49-6.93-15.37-15.48-15.37z" fill="#FFF"/></svg>
