<svg xmlns="http://www.w3.org/2000/svg" width="89" height="90"><rect width="100%" height="100%" fill="none"/><g class="currentLayer"><circle cx="15.59" cy="9.51" r="10.28"/><circle cx="15.59" cy="9.51" r="10.28" fill="#fff"/><path d="M5.76 63.57h.63v20.68c0 3.16 2.6 5.75 5.75 5.75h9.74a5.77 5.77 0 0 0 5.75-5.75v-47.6h16.46c5.87 0 10.62-4.76 10.62-10.62v-1.66H12.4C5.59 24.37 0 29.95 0 36.77v21.05a5.77 5.77 0 0 0 5.76 5.75z" fill="#fff"/><path d="M79.86 48.6l-.93.53a.44.44 0 0 1-.22.06.37.37 0 0 1-.23-.08 19.9 19.9 0 0 0-5.62-3.24c-.14-.05-.23-.2-.23-.38v-1.07A5.43 5.43 0 0 0 67.21 39H64.4a5.43 5.43 0 0 0-5.42 5.42v1.07c0 .17-.1.33-.24.38a19.93 19.93 0 0 0-5.61 3.24.36.36 0 0 1-.24.08.45.45 0 0 1-.22-.06l-.93-.53a5.42 5.42 0 0 0-7.4 1.98l-1.4 2.43a5.43 5.43 0 0 0 1.98 7.4l.92.54c.15.08.23.25.2.4a19.86 19.86 0 0 0 0 6.49c.03.15-.05.31-.2.4l-.92.53a5.43 5.43 0 0 0-1.98 7.4l1.4 2.43a5.44 5.44 0 0 0 7.4 1.99l.93-.54a.44.44 0 0 1 .22-.06.4.4 0 0 1 .24.08 19.91 19.91 0 0 0 5.61 3.24c.14.06.24.21.24.39v1.07a5.43 5.43 0 0 0 5.42 5.42h2.8a5.43 5.43 0 0 0 5.43-5.42V83.7c0-.18.1-.33.23-.39a19.92 19.92 0 0 0 5.62-3.24.37.37 0 0 1 .23-.08c.05 0 .14.01.22.06l.93.54a5.42 5.42 0 0 0 7.4-1.99l1.4-2.43c1.5-2.59.61-5.9-1.98-7.4l-.91-.53a.4.4 0 0 1-.22-.4 19.86 19.86 0 0 0 0-6.5c-.02-.15.06-.3.22-.4l.91-.53a5.43 5.43 0 0 0 1.99-7.4l-1.4-2.43a5.44 5.44 0 0 0-7.4-1.98zM65.8 73.36a8.78 8.78 0 0 1 0-17.54 8.78 8.78 0 0 1 0 17.54z" fill="#fff"/></g></svg>
