<svg xmlns="http://www.w3.org/2000/svg" width="30" height="30"><rect width="100%" height="100%" fill="none"/><g class="currentLayer"><path d="M21.13 6.64a1.99 1.99 0 0 0-2.89 0L7.74 17.5a.37.37 0 0 0-.08.1s0 .03-.02.03c-.02.04-.04.06-.04.1v.03l-1.4 4.7a.7.7 0 0 0 .15.64c.12.13.26.2.43.2.06 0 .12 0 .18-.03l4.53-1.44h.02c.04-.02.08-.02.1-.04 0 0 .02 0 .02-.02.04-.03.08-.05.1-.09l10.49-10.86c.8-.83.8-2.16 0-2.99l-1.09-1.19zM7.72 21.68l.76-2.52 1.7 1.76-2.46.76zm3.6-1.38l-2.27-2.33 7.94-8.23 2.28 2.35-7.95 8.21zM21.36 9.9l-1.23 1.27-2.25-2.33 1.22-1.27a.8.8 0 0 1 1.17 0l1.1 1.14c.31.32.31.87-.01 1.19z" fill="#fff"/></g></svg>
