<svg xmlns="http://www.w3.org/2000/svg" style="isolation:isolate" viewBox="2 2 64 63.97" width="64" height="63.97"><defs><clipPath id="a"><path d="M2 2h64v63.97H2z"/></clipPath></defs><g fill="#fff" clip-path="url(#a)"><path d="M10 11.14c.63 0 1.14-.51 1.14-1.14V3.62L3.6 11.13H10z"/><path d="M3.14 59.12h32.83l-.07-.15c-.28-.54-.53-1.1-.75-1.66l-.1-.27q-.29-.78-.5-1.6l-.08-.27a16.8 16.8 0 0 1-.32-1.78l-.05-.4c-.07-.62-.11-1.24-.11-1.87q0-.7.05-1.37l.06-.46c.03-.3.06-.6.11-.9l.1-.52.17-.8.16-.54.22-.75.2-.54.27-.72.25-.53c.1-.23.2-.45.32-.67l.28-.52.37-.64c.1-.17.22-.33.33-.5l.42-.6a15.22 15.22 0 0 1 .83-1.04 18.3 18.3 0 0 1 .9-.98 19.69 19.69 0 0 1 1.43-1.29q.28-.24.58-.47l.5-.34.62-.4.52-.31a16.95 16.95 0 0 1 2.47-1.15l.26-.11V3.14c0-.63-.5-1.14-1.14-1.14H13.42v8c0 1.89-1.53 3.42-3.42 3.42H2v44.55c0 .64.51 1.15 1.14 1.15zm18.28-9.14h-1.14a1.14 1.14 0 0 1 0-2.29h1.14a1.14 1.14 0 0 1 0 2.29zm13.7-11.42H16.86a1.14 1.14 0 1 1 0-2.29h18.28a1.14 1.14 0 1 1 0 2.28zm4.58-5.72H19.13a1.14 1.14 0 0 1 0-2.28H39.7a1.14 1.14 0 1 1 0 2.28zm0-5.7h-5.71a1.14 1.14 0 0 1 0-2.3h5.7a1.14 1.14 0 1 1 0 2.3zm-31.99-8H39.7a1.14 1.14 0 0 1 0 2.28H7.7a1.14 1.14 0 1 1 0-2.29zm0 5.7h20.56a1.14 1.14 0 1 1 0 2.3H7.71a1.14 1.14 0 0 1 0-2.3zm0 5.72h5.71a1.14 1.14 0 0 1 0 2.28h-5.7a1.14 1.14 0 0 1 0-2.28zm0 5.71h3.43a1.14 1.14 0 1 1 0 2.28H7.7a1.14 1.14 0 1 1 0-2.28zm0 5.71h22.85a1.14 1.14 0 0 1 0 2.29H7.7a1.14 1.14 0 1 1 0-2.29zm0 5.71h6.86a1.14 1.14 0 0 1 0 2.29H7.7a1.14 1.14 0 0 1 0-2.29zM41.84 65.5c-.18-.12-.36-.22-.53-.35q-.69-.47-1.32-1.02l-.19-.15c-.47-.42-.93-.88-1.35-1.35l-.37-.44c-.22-.26-.45-.52-.66-.8H8.85v3.44c0 .63.52 1.14 1.15 1.14h32.58c-.25-.14-.5-.31-.74-.47zM49.72 34.05l.14-.02c.54-.04 1.1-.04 1.65-.03l.35.01.4.01V10c0-.63-.5-1.15-1.14-1.15H47.7v25.48l.2-.03.3-.06c.5-.08 1.01-.15 1.53-.2z"/><path d="M53.24 36.42h-.02a15.22 15.22 0 0 0-3.2-.1h-.12a14.32 14.32 0 0 0-3.02.57 14.85 14.85 0 1 0 6.37-.47zm-1 23.93c0 .07-.02.15-.04.23l-.07.2a1.26 1.26 0 0 1-.28.34l-.06.07-2.62 1.89a1.14 1.14 0 0 1-1.34-1.85l.36-.26a10.27 10.27 0 0 1-3.86-17.56 1.14 1.14 0 0 1 1.5 1.71A7.99 7.99 0 0 0 48.6 58.7l-.29-.4a1.14 1.14 0 0 1 1.86-1.33l1.89 2.62.05.11c.08.13.13.28.14.44l.02.12c0 .03 0 .06-.02.09zm5.67-1.52a1.14 1.14 0 1 1-1.5-1.71 7.99 7.99 0 0 0-2.75-13.58l.28.4a1.14 1.14 0 1 1-1.85 1.33l-1.9-2.62-.14-.32a1.04 1.04 0 0 1-.05-.23.9.9 0 0 1-.02-.12c0-.03 0-.06.02-.09 0-.07.02-.15.04-.22l.08-.2a1.21 1.21 0 0 1 .27-.35l.06-.07 2.62-1.89a1.14 1.14 0 0 1 1.34 1.86l-.35.25a10.27 10.27 0 0 1 3.85 17.56z"/></g></svg>
